<?xml version="1.0" standalone="no"?><!DOCTYPE svg PUBLIC "-//W3C//DTD SVG 1.1//EN" "http://www.w3.org/Graphics/SVG/1.1/DTD/svg11.dtd"><svg t="1713768204889" class="icon" viewBox="0 0 1024 1024" version="1.1" xmlns="http://www.w3.org/2000/svg" p-id="21879" width="64" height="64" xmlns:xlink="http://www.w3.org/1999/xlink"><path d="M115.2 729.6h780.8v89.6H115.2z" fill="#9FCDFF" p-id="21880"></path><path d="M902.1696 746.7136v155.456H120.8064V746.7136h781.3632zM920.576 728.32H102.4V921.6h818.176V728.3072z m-194.304 117.6064H189.3248v-50.112h536.9216v50.112z m119.6416 0h-64.4224v-50.112h64.4224v50.112z m73.6384-377.3824c-9.2032-87.9488-83.8656-156.4672-173.8624-156.4672-5.12 0-9.2032 0-14.3104 1.024C726.2592 195.456 629.1072 102.4 511.488 102.4c-118.6304 0-214.7712 93.056-219.8784 209.664h-14.336c-89.984 0-164.6464 68.5184-173.8496 156.4672-1.024 6.144-1.024 11.264-1.024 17.3952 0 97.152 77.7216 174.8736 174.8864 174.8736h468.4032c96.128 0 174.8864-77.7216 174.8864-174.8736 0-6.144 0-11.264-1.024-17.3952z" fill="#007AFF" p-id="21881"></path></svg>