<?xml version="1.0" standalone="no"?><!DOCTYPE svg PUBLIC "-//W3C//DTD SVG 1.1//EN" "http://www.w3.org/Graphics/SVG/1.1/DTD/svg11.dtd"><svg t="1713767972038" class="icon" viewBox="0 0 1024 1024" version="1.1" xmlns="http://www.w3.org/2000/svg" p-id="13499" width="64" height="64" xmlns:xlink="http://www.w3.org/1999/xlink"><path d="M203.8 255.1h619c12.7 0 23 10.4 23 23v391.1c0 12.7-10.4 23-23 23h-619c-12.7 0-23-10.4-23-23V278.1c0-12.7 10.3-23 23-23z" fill="#5B79FB" p-id="13500"></path><path d="M215.3 300.7h596v320h-596z" fill="#FFFFFF" p-id="13501"></path><path d="M499.1 640.6h28.3v28.3h-28.3z" fill="#FF7E71" p-id="13502"></path><path d="M180.8 692.1h665l115.5 49.2h-896z" fill="#5B79FB" p-id="13503"></path><path d="M65.3 741.3h896v12.9c0 9.1-7.5 16.6-16.6 16.6H81.9c-9.1 0-16.6-7.5-16.6-16.6v-12.9z" fill="#5B79FB" p-id="13504"></path><path d="M422.8 750.3h181v11.5h-181z" fill="#FF7E71" p-id="13505"></path><path d="M196.7 696.1h62.2c-3.2 1.9-6.3 3.8-9.4 5.7h-64.4c3.9-1.9 7.8-3.8 11.6-5.7zM310.7 696.1h62.2l-5.1 5.7h-64.5c2.4-1.9 4.9-3.8 7.4-5.7zM424.7 696.1h62.2c-0.2 1.9-0.5 3.8-0.9 5.7h-64.6c1.2-1.9 2.3-3.8 3.3-5.7zM538.8 696.1H601c1.1 1.9 2.3 3.8 3.3 5.7h-64.6c-0.2-1.9-0.6-3.8-0.9-5.7zM652.8 696.1H715c2.6 1.9 5.1 3.8 7.6 5.7h-64.5c-1.7-1.9-3.5-3.8-5.3-5.7zM766.9 696.1h62.2c4 1.9 7.9 3.8 11.8 5.7h-64.6c-3.1-1.9-6.2-3.8-9.4-5.7zM176.7 705.9h66.1c-3.1 1.9-6.3 3.8-9.4 5.7H165c3.8-1.9 7.8-3.8 11.7-5.7zM298 705.9h66.1c-1.7 1.9-3.5 3.8-5.1 5.7h-68.5c2.4-1.9 5-3.8 7.5-5.7zM419.3 705.9h66.2l-0.9 5.7h-68.5c1-1.9 2.1-3.8 3.2-5.7zM540.5 705.9h66.2l3.3 5.7h-68.5c-0.3-1.9-0.6-3.8-1-5.7zM661.9 705.9H728c2.5 1.9 5.1 3.8 7.5 5.7h-68.4c-1.7-1.9-3.5-3.8-5.2-5.7zM783.2 705.9h66.3l11.7 5.7h-68.5c-3.1-1.9-6.3-3.8-9.5-5.7zM156.6 715.8h70.1c-3.2 1.9-6.2 3.8-9.4 5.7H145c3.8-1.9 7.6-3.8 11.6-5.7zM285.1 715.8h70.2c-1.8 1.9-3.4 3.8-5.1 5.7h-72.4c2.4-1.9 4.8-3.8 7.3-5.7zM413.7 715.8h70.2c-0.4 1.9-0.6 3.8-0.9 5.7h-72.5c1.1-1.9 2.1-3.8 3.2-5.7zM542.3 715.8h70.2c1 1.9 2.2 3.8 3.3 5.7h-72.5c-0.3-1.9-0.7-3.8-1-5.7zM670.9 715.8h70.2c2.4 1.9 5 3.8 7.5 5.7h-72.4c-1.8-1.9-3.6-3.8-5.3-5.7zM799.5 715.8h70.2l11.7 5.7h-72.5c-3-1.9-6.3-3.8-9.4-5.7zM136.5 725.6H890c4 1.9 7.8 3.8 11.7 5.7h-777c4.1-1.9 7.9-3.8 11.8-5.7z" fill="#A4BEFF" p-id="13506"></path><path d="M812.4 534.8v86.7H215.3V300.7h234z" fill="#E5ECFF" p-id="13507"></path></svg>