<?xml version="1.0" standalone="no"?><!DOCTYPE svg PUBLIC "-//W3C//DTD SVG 1.1//EN" "http://www.w3.org/Graphics/SVG/1.1/DTD/svg11.dtd"><svg t="1713767880040" class="icon" viewBox="0 0 1024 1024" version="1.1" xmlns="http://www.w3.org/2000/svg" p-id="11344" width="64" height="64" xmlns:xlink="http://www.w3.org/1999/xlink"><path d="M683.5 137.5c1.7 0 1.8 2 3.3 2.3 0.3 0 2.2-3.9 2.5-3.8 1.4 0.3 1.7-2.1 3.1-1.7 0.2 0.1 1 1.5 1.3 1.6 1.6 0.6 3.2-4.7 4.7-3.9l-25.6-14-1.2-0.6c-1.1-0.5-2.3-1-3.5-1.4-0.2-0.1-0.5-0.1-0.7-0.2-0.7-0.2-1.5-0.5-2.2-0.7-0.7-0.2-1.3-0.3-2-0.4-0.3-0.1-0.5-0.1-0.8-0.2-1.6-0.3-3.2-0.4-4.9-0.5h-1.1c-1.7 0-3.5 0.1-5.3 0.3L384 151.9c-1.8 0.3-3.6 0.7-5.4 1.2-0.5 0.1-0.9 0.3-1.4 0.4-1.6 0.5-3.2 1.1-4.7 1.8-0.1 0.1-0.2 0.1-0.4 0.1h-0.1c-2.1 1-4.1 2.2-6 3.4-0.2 0.1-0.4 0.2-0.5 0.3l-0.3 0.3c-1.5 1.1-2.9 2.2-4.3 3.4-0.1 0.1-0.2 0.1-0.3 0.2l-0.6 0.6c-1 0.9-2 1.9-2.9 2.9l-0.6 0.6c-0.2 0.2-0.3 0.4-0.4 0.6-1 1.2-1.9 2.4-2.8 3.6-0.1 0.2-0.3 0.3-0.4 0.5 0 0 0 0.1-0.1 0.1-1.1 1.5-2 3.1-2.9 4.7-0.1 0.2-0.2 0.3-0.3 0.5l-0.3 0.6c-1 2-2 4-2.7 6.1v0.1c-0.3 0.7-0.5 1.5-0.7 2.2l-0.6 1.8c-0.2 0.8-0.4 1.7-0.6 2.5-0.1 0.6-0.3 1.2-0.4 1.8-0.2 0.9-0.3 1.9-0.4 2.8-0.1 0.5-0.2 1-0.2 1.6-0.1 1.5-0.2 3-0.2 4.5l-1.3 676.4c0 15.5 7.5 28.1 18.8 34.3l25.5 13.9c-11.3-6.2-18.8-18.8-18.8-34.3L369 215c0-1.5 0.1-3 0.2-4.5 0-0.5 0.2-1 0.2-1.6 0.1-0.9 0.2-1.9 0.4-2.8 0.1-0.6 0.3-1.2 0.4-1.8 0.2-0.8 0.4-1.7 0.6-2.5l0.6-1.8c0.2-0.8 0.5-1.6 0.8-2.3 0.8-2.1 1.7-4.1 2.7-6.1 0.2-0.4 0.4-0.8 0.6-1.1 0.9-1.6 1.9-3.2 2.9-4.7 0.1-0.2 0.3-0.4 0.4-0.6 0.9-1.2 1.8-2.4 2.8-3.6 0.3-0.4 0.7-0.8 1-1.2 0.9-1 1.9-2 2.9-2.9 0.3-0.3 0.6-0.6 0.9-0.8 1.4-1.2 2.8-2.4 4.3-3.4l0.9-0.6c1.9-1.3 3.9-2.5 6-3.4 0.1-0.1 0.3-0.1 0.4-0.2 1.5-0.7 3.1-1.3 4.7-1.8 0.5-0.1 0.9-0.3 1.4-0.4 1.8-0.5 3.6-0.9 5.4-1.2l266.6-29.4c1.8-0.3 5-0.8 6.8-0.8 0.3 0 0.2 2 0.6 2z" fill="#203040" p-id="11345"></path><path d="M676.1 127.7c22.4-3.1 40.5 13.9 40.4 38l-1.3 676.4c0 24.1-18.2 46.3-40.6 49.4L407.4 929c-22.4 3.1-40.5-13.9-40.4-38l1.3-676.4c0-24.1 18.2-46.3 40.6-49.4l267.2-37.5z" fill="#344D66" p-id="11346"></path><path d="M672.3 145.8c12.8-1.8 23.1 10.3 23.1 26.9l-1.2 654.8c0 23-18.4 44.2-41.1 47.4l-225.2 31.7c-22.7 3.2-41-12.8-41-35.9l1.2-654.8c0-16.6 10.4-31.6 23.2-33.4l40.7-5.7c6.8-1 12.3 5.5 12.3 14.4 0 12.9 8 22.3 17.9 20.9l119-16.7c9.9-1.4 18-13 18.1-25.9 0-8.9 5.5-16.9 12.3-17.8l40.7-5.9z" fill="#7BB7FF" p-id="11347"></path><path d="M607.4 860.7c2.1-0.3 3.8 1.3 3.8 3.6s-1.7 4.4-3.8 4.7L491 885.4c-2.1 0.3-3.8-1.3-3.8-3.6s1.7-4.3 3.8-4.6l116.4-16.5z" fill="#1C2A38" p-id="11348"></path><path d="M455.3 815.7c0.8 0.2 1.5 0.4 2.2 0.8l-5.1-2.8c-0.1-0.1-0.2-0.1-0.3-0.1-0.5-0.2-1-0.4-1.5-0.5-0.1 0-0.3 0-0.4-0.1-0.2 0-0.3 0-0.5-0.1-0.8-0.1-1.5-0.2-2.4 0l-27 3.8c-0.8 0.1-1.7 0.4-2.4 0.7-0.1 0-0.2 0-0.3 0.1-0.2 0.1-0.3 0.2-0.5 0.3-0.2 0.1-0.5 0.2-0.7 0.4-0.1 0.1-0.2 0.1-0.3 0.2-0.3 0.2-0.5 0.4-0.7 0.6-0.1 0.1-0.2 0.1-0.3 0.2l-0.1 0.1c-0.3 0.3-0.7 0.6-1 1l-0.2 0.2-0.3 0.3c-0.1 0.2-0.3 0.3-0.4 0.5-0.1 0.2-0.3 0.4-0.4 0.6-0.1 0.1-0.2 0.3-0.2 0.4 0 0.1-0.1 0.1-0.1 0.2l-0.6 1.2c0 0.1-0.1 0.2-0.1 0.3-0.2 0.4-0.2 0.8-0.3 1.3-0.1 0.2-0.1 0.4-0.2 0.6-0.1 0.7-0.2 1.3-0.2 2l-0.1 29.2c0 0.9 0.1 1.7 0.3 2.5 0.6 2.4 2.1 4.3 4 5.3l5.1 2.8c-2.6-1.4-4.3-4.3-4.3-7.8l0.1-29.2c0-0.7 0.1-1.4 0.2-2 0-0.2 0.1-0.4 0.2-0.6 0.1-0.4 0.2-0.9 0.4-1.3 0-0.1 0.1-0.2 0.1-0.3 0.2-0.5 0.4-1 0.7-1.4 0.1-0.1 0.2-0.3 0.2-0.4 0.3-0.4 0.5-0.8 0.8-1.2l0.3-0.3c0.4-0.4 0.8-0.9 1.2-1.2 0.1-0.1 0.2-0.1 0.3-0.2 0.3-0.3 0.7-0.5 1.1-0.8 0.2-0.1 0.4-0.3 0.7-0.4 0.3-0.1 0.5-0.3 0.8-0.4 0.8-0.3 1.6-0.6 2.4-0.7l27-3.8c0.8-0.1 1.6-0.1 2.4 0h0.4z" fill="#FFAFAF" p-id="11349"></path><path d="M452.5 815.6c5.2-0.7 9.3 3.2 9.3 8.7l-0.1 29.2c0 5.5-4.2 10.6-9.3 11.3l-27 3.8c-5.2 0.7-9.3-3.2-9.3-8.7l0.1-29.2c0-5.5 4.2-10.6 9.3-11.3l27-3.8z" fill="#FFDCDC" p-id="11350"></path><path d="M526.9 807c0.8 0.2 1.5 0.4 2.1 0.7l-5.1-2.8c-0.1-0.1-0.2-0.1-0.3-0.1-0.5-0.2-1-0.4-1.5-0.5-0.1 0-0.3 0-0.4-0.1-0.2 0-0.3 0-0.5-0.1-0.8-0.1-1.5-0.1-2.3 0l-27 3.8c-0.8 0.1-1.6 0.4-2.4 0.7-0.1 0-0.2 0-0.3 0.1-0.2 0.1-0.3 0.2-0.5 0.3-0.2 0.1-0.4 0.2-0.7 0.4-0.1 0.1-0.2 0.1-0.3 0.2-0.3 0.2-0.5 0.4-0.8 0.6-0.1 0.1-0.2 0.1-0.3 0.2 0 0-0.1 0-0.1 0.1-0.3 0.3-0.6 0.6-0.9 1l-0.2 0.2-0.3 0.3c-0.1 0.2-0.3 0.3-0.4 0.5-0.2 0.2-0.3 0.4-0.4 0.7-0.1 0.1-0.2 0.2-0.2 0.4 0 0.1-0.1 0.1-0.1 0.2-0.2 0.4-0.4 0.9-0.6 1.3 0 0.1-0.1 0.1-0.1 0.2-0.2 0.4-0.2 0.9-0.4 1.3-0.1 0.2-0.1 0.4-0.2 0.6-0.1 0.7-0.2 1.4-0.2 2l-0.1 29.1c0 3.6 1.7 6.5 4.3 7.9l5.1 2.8c-2.6-1.4-4.3-4.3-4.3-7.9l0.1-29.1c0-0.7 0.1-1.4 0.2-2 0-0.2 0.1-0.4 0.2-0.6 0.1-0.4 0.2-0.9 0.4-1.3 0-0.1 0.1-0.1 0.1-0.2 0.2-0.5 0.4-1 0.7-1.5 0.1-0.1 0.2-0.2 0.2-0.4 0.2-0.4 0.5-0.8 0.8-1.2l0.3-0.3c0.4-0.4 0.8-0.9 1.2-1.2 0.1-0.1 0.2-0.1 0.3-0.2 0.4-0.3 0.7-0.6 1.1-0.8 0.2-0.1 0.4-0.3 0.7-0.4 0.3-0.1 0.5-0.3 0.8-0.4 0.8-0.3 1.6-0.6 2.4-0.7l27-3.8c0.8-0.1 1.6-0.1 2.3 0 0.3-0.1 0.4-0.1 0.6 0z" fill="#FFAFAF" p-id="11351"></path><path d="M524.1 806.9c5.1-0.7 9.3 3.2 9.3 8.8l-0.1 29.1c0 5.6-4.2 10.6-9.3 11.4l-27 3.8c-5.1 0.7-9.3-3.2-9.3-8.8l0.1-29.1c0-5.6 4.2-10.6 9.3-11.4l27-3.8z" fill="#FFDCDC" p-id="11352"></path><path d="M456.5 260.4c0.8 0.2 1.5 0.4 2.2 0.8l-5.1-2.8c-0.1-0.1-0.2-0.1-0.3-0.1-0.5-0.2-1-0.4-1.5-0.5-0.1 0-0.3 0-0.4-0.1-0.2 0-0.3 0-0.5-0.1-0.8-0.1-1.5-0.2-2.4 0l-27 3.8c-0.8 0.1-1.7 0.4-2.4 0.7-0.1 0-0.2 0-0.3 0.1-0.2 0.1-0.3 0.2-0.5 0.3-0.2 0.1-0.5 0.2-0.7 0.4-0.1 0.1-0.2 0.1-0.3 0.2-0.3 0.2-0.5 0.4-0.7 0.6-0.1 0.1-0.2 0.1-0.3 0.2l-0.1 0.1c-0.3 0.3-0.7 0.6-1 1l-0.2 0.2-0.3 0.3c-0.1 0.2-0.3 0.3-0.4 0.5-0.1 0.2-0.3 0.4-0.4 0.6-0.1 0.1-0.2 0.3-0.2 0.4 0 0.1-0.1 0.1-0.1 0.2l-0.6 1.2c0 0.1-0.1 0.2-0.1 0.3-0.2 0.4-0.2 0.8-0.3 1.3-0.1 0.2-0.1 0.4-0.2 0.6-0.1 0.7-0.2 1.3-0.2 2l-0.1 29.2c0 0.9 0.1 1.7 0.3 2.5 0.6 2.4 2.1 4.3 4 5.3l5.1 2.8c-2.6-1.4-4.3-4.3-4.3-7.8l0.1-29.2c0-0.7 0.1-1.4 0.2-2 0-0.2 0.1-0.4 0.2-0.6 0.1-0.4 0.2-0.9 0.4-1.3 0-0.1 0.1-0.2 0.1-0.3 0.2-0.5 0.4-1 0.7-1.4 0.1-0.1 0.2-0.3 0.2-0.4 0.3-0.4 0.5-0.8 0.8-1.2l0.3-0.3c0.4-0.4 0.8-0.9 1.2-1.2 0.1-0.1 0.2-0.1 0.3-0.2 0.3-0.3 0.7-0.5 1.1-0.8 0.2-0.1 0.4-0.3 0.7-0.4 0.3-0.1 0.5-0.3 0.8-0.4 0.8-0.3 1.6-0.6 2.4-0.7l27-3.8c0.8-0.1 1.6-0.1 2.4 0 0.1-0.1 0.2 0 0.4 0z" fill="#FFAFAF" p-id="11353"></path><path d="M453.6 260.3c5.2-0.7 9.3 3.2 9.3 8.7l-0.1 29.2c0 5.5-4.2 10.6-9.3 11.3l-27 3.8c-5.2 0.7-9.3-3.2-9.3-8.7l0.1-29.2c0-5.5 4.2-10.6 9.3-11.3l27-3.8z" fill="#FFDCDC" p-id="11354"></path><path d="M528.1 251.6c0.8 0.2 1.5 0.4 2.1 0.7l-5.1-2.8c-0.1-0.1-0.2-0.1-0.3-0.1-0.5-0.2-1-0.4-1.5-0.5-0.1 0-0.3 0-0.4-0.1-0.2 0-0.3 0-0.5-0.1-0.8-0.1-1.5-0.1-2.3 0l-27 3.8c-0.8 0.1-1.6 0.4-2.4 0.7-0.1 0-0.2 0-0.3 0.1-0.2 0.1-0.3 0.2-0.5 0.3-0.2 0.1-0.4 0.2-0.7 0.4-0.1 0.1-0.2 0.1-0.3 0.2-0.3 0.2-0.5 0.4-0.8 0.6-0.1 0.1-0.2 0.1-0.3 0.2 0 0-0.1 0-0.1 0.1-0.3 0.3-0.6 0.6-0.9 1l-0.2 0.2-0.3 0.3c-0.1 0.2-0.3 0.3-0.4 0.5-0.2 0.2-0.3 0.4-0.4 0.7-0.1 0.1-0.2 0.2-0.2 0.4 0 0.1-0.1 0.1-0.1 0.2-0.2 0.4-0.4 0.9-0.6 1.3 0 0.1-0.1 0.1-0.1 0.2-0.2 0.4-0.2 0.9-0.4 1.3-0.1 0.2-0.1 0.4-0.2 0.6-0.1 0.7-0.2 1.4-0.2 2l-0.1 29.1c0 3.6 1.7 6.5 4.3 7.9l5.1 2.8c-2.6-1.4-4.3-4.3-4.3-7.9l0.1-29.1c0-0.7 0.1-1.4 0.2-2 0-0.2 0.1-0.4 0.2-0.6 0.1-0.4 0.2-0.9 0.4-1.3 0-0.1 0.1-0.1 0.1-0.2 0.2-0.5 0.4-1 0.7-1.5 0.1-0.1 0.2-0.2 0.2-0.4 0.2-0.4 0.5-0.8 0.8-1.2l0.3-0.3c0.4-0.4 0.8-0.9 1.2-1.2 0.1-0.1 0.2-0.1 0.3-0.2 0.4-0.3 0.7-0.6 1.1-0.8 0.2-0.1 0.4-0.3 0.7-0.4 0.3-0.1 0.5-0.3 0.8-0.4 0.8-0.3 1.6-0.6 2.4-0.7l27-3.8c0.8-0.1 1.6-0.1 2.3 0h0.6z" fill="#FFAFAF" p-id="11355"></path><path d="M525.3 251.5c5.1-0.7 9.3 3.2 9.3 8.8l-0.1 29.1c0 5.6-4.2 10.6-9.3 11.4l-27 3.8c-5.1 0.7-9.3-3.2-9.3-8.8l0.1-29.1c0-5.6 4.2-10.6 9.3-11.4l27-3.8z" fill="#FFDCDC" p-id="11356"></path><path d="M600.6 798.5l-5.1-2.8c-0.1-0.1-0.2-0.1-0.3-0.1-0.5-0.2-1-0.4-1.5-0.5-0.1 0-0.3 0-0.4-0.1-0.2 0-0.3 0-0.5-0.1-0.8-0.1-1.5-0.1-2.3 0l-27 3.8c-0.8 0.1-1.6 0.4-2.4 0.7-0.1 0-0.2 0-0.3 0.1-0.2 0.1-0.3 0.2-0.5 0.3-0.2 0.1-0.4 0.2-0.7 0.4-0.1 0.1-0.2 0.1-0.3 0.2-0.3 0.2-0.5 0.4-0.8 0.6-0.1 0.1-0.2 0.1-0.3 0.2 0 0-0.1 0-0.1 0.1-0.3 0.3-0.6 0.6-0.9 1-0.1 0.1-0.1 0.2-0.2 0.2l-0.3 0.3c-0.1 0.2-0.3 0.3-0.4 0.5-0.2 0.2-0.3 0.5-0.4 0.7-0.1 0.1-0.2 0.2-0.2 0.4 0 0.1-0.1 0.1-0.1 0.2-0.3 0.5-0.5 1-0.7 1.5v0.1c-0.2 0.5-0.3 0.9-0.4 1.4 0 0.2-0.1 0.3-0.1 0.5-0.1 0.7-0.2 1.4-0.2 2.1l-0.1 29.1c0 3.6 1.7 6.5 4.3 7.9l5.1 2.8c-2.6-1.4-4.3-4.3-4.3-7.9l0.1-29.1c0-0.7 0.1-1.4 0.2-2.1 0-0.2 0.1-0.4 0.2-0.6 0.1-0.5 0.2-0.9 0.4-1.4v-0.1c0.2-0.6 0.5-1.1 0.8-1.6 0.1-0.1 0.2-0.2 0.2-0.4 0.2-0.4 0.5-0.8 0.8-1.2l0.3-0.3c0.4-0.4 0.8-0.9 1.2-1.2 0.1-0.1 0.2-0.1 0.3-0.2 0.4-0.3 0.7-0.6 1.1-0.8 0.2-0.1 0.4-0.3 0.7-0.4 0.3-0.1 0.5-0.3 0.8-0.4 0.8-0.3 1.6-0.6 2.4-0.7l27-3.8c0.8-0.1 1.6-0.1 2.3 0 0.2 0 0.3 0 0.5 0.1 0.8 0 1.5 0.3 2.1 0.6z" fill="#33D333" p-id="11357"></path><path d="M595.7 797.7c5.1-0.7 9.3 3.2 9.3 8.8l-0.1 29.1c0 5.6-4.2 10.6-9.3 11.4l-27 3.8c-5.2 0.7-9.3-3.2-9.3-8.8l0.1-29.1c0-5.6 4.1-10.6 9.3-11.4l27-3.8z" fill="#88FF8B" p-id="11358"></path><path d="M670.1 790.1c0.8 0.2 1.5 0.4 2.2 0.8l-5.1-2.8c-0.1-0.1-0.2-0.1-0.3-0.1-0.5-0.2-1-0.4-1.5-0.5-0.1 0-0.3 0-0.4-0.1-0.2 0-0.3 0-0.5-0.1-0.8-0.1-1.5-0.2-2.4 0l-27 3.8c-0.8 0.1-1.7 0.4-2.4 0.7-0.1 0-0.2 0-0.3 0.1-0.2 0.1-0.3 0.2-0.5 0.3-0.2 0.1-0.5 0.2-0.7 0.4-0.1 0.1-0.2 0.1-0.3 0.2-0.3 0.2-0.5 0.4-0.7 0.6-0.1 0.1-0.2 0.1-0.3 0.2l-0.1 0.1c-0.3 0.3-0.7 0.6-1 1l-0.2 0.2-0.3 0.3c-0.1 0.2-0.3 0.3-0.4 0.5-0.1 0.2-0.3 0.4-0.4 0.6-0.1 0.1-0.2 0.3-0.2 0.4 0 0.1-0.1 0.1-0.1 0.2l-0.6 1.2c0 0.1-0.1 0.2-0.1 0.3-0.1 0.4-0.2 0.8-0.3 1.3-0.1 0.2-0.1 0.4-0.2 0.6-0.1 0.7-0.2 1.3-0.2 2l-0.1 29.2c0 3.5 1.7 6.4 4.3 7.8l5.1 2.8c-2.6-1.4-4.3-4.3-4.3-7.8l0.1-29.2c0-0.7 0.1-1.4 0.2-2 0-0.2 0.1-0.4 0.2-0.6 0.1-0.4 0.2-0.9 0.4-1.3 0-0.1 0.1-0.2 0.1-0.3 0.2-0.5 0.4-1 0.7-1.4 0.1-0.1 0.2-0.3 0.2-0.4 0.2-0.4 0.5-0.8 0.8-1.2l0.3-0.3c0.4-0.4 0.8-0.9 1.2-1.2 0.1-0.1 0.2-0.1 0.3-0.2 0.3-0.3 0.7-0.5 1.1-0.8 0.2-0.1 0.4-0.3 0.7-0.4 0.3-0.1 0.5-0.3 0.8-0.4 0.8-0.3 1.6-0.6 2.4-0.7l27-3.8c0.8-0.1 1.6-0.1 2.4 0h0.4z" fill="#FFAFAF" p-id="11359"></path><path d="M667.3 790c5.2-0.7 9.3 3.2 9.3 8.7l-0.1 29.2c0 5.5-4.2 10.6-9.3 11.3l-27 3.8c-5.2 0.7-9.3-3.2-9.3-8.7l0.1-29.2c0-5.5 4.2-10.6 9.3-11.3l27-3.8z" fill="#FFDCDC" p-id="11360"></path></svg>